<svg width="19" height="17" viewBox="0 0 19 17" fill="none" xmlns="http://www.w3.org/2000/svg">
<path d="M2.3 1.88889H5L6.8 0H12.2L14 1.88889H16.7C17.1774 1.88889 17.6352 2.0879 17.9728 2.44213C18.3104 2.79637 18.5 3.27681 18.5 3.77778V15.1111C18.5 15.6121 18.3104 16.0925 17.9728 16.4468C17.6352 16.801 17.1774 17 16.7 17H2.3C1.82261 17 1.36477 16.801 1.02721 16.4468C0.689642 16.0925 0.5 15.6121 0.5 15.1111V3.77778C0.5 3.27681 0.689642 2.79637 1.02721 2.44213C1.36477 2.0879 1.82261 1.88889 2.3 1.88889ZM9.5 4.72222C8.30653 4.72222 7.16193 5.21974 6.31802 6.10533C5.47411 6.99092 5 8.19203 5 9.44444C5 10.6969 5.47411 11.898 6.31802 12.7836C7.16193 13.6691 8.30653 14.1667 9.5 14.1667C10.6935 14.1667 11.8381 13.6691 12.682 12.7836C13.5259 11.898 14 10.6969 14 9.44444C14 8.19203 13.5259 6.99092 12.682 6.10533C11.8381 5.21974 10.6935 4.72222 9.5 4.72222ZM9.5 6.61111C10.2161 6.61111 10.9028 6.90962 11.4092 7.44097C11.9155 7.97233 12.2 8.693 12.2 9.44444C12.2 10.1959 11.9155 10.9166 11.4092 11.4479C10.9028 11.9793 10.2161 12.2778 9.5 12.2778C8.78392 12.2778 8.09716 11.9793 7.59081 11.4479C7.08446 10.9166 6.8 10.1959 6.8 9.44444C6.8 8.693 7.08446 7.97233 7.59081 7.44097C8.09716 6.90962 8.78392 6.61111 9.5 6.61111Z" fill="#4E4646"/>
</svg>
