<svg xmlns="http://www.w3.org/2000/svg" width="24" height="24" viewBox="0 0 24 24" fill="none">
  <path d="M23.3561 11.4678C22.2956 6.673 20.6995 4.11385 18.3318 3.41481C17.8342 3.26881 17.3179 3.19588 16.7992 3.1983C16.1137 3.1983 15.5167 3.36531 14.8851 3.54232C14.1241 3.75583 13.2595 3.99835 11.999 3.99835C10.7384 3.99835 9.87335 3.75633 9.1108 3.54282C8.47877 3.36531 7.88223 3.1983 7.19869 3.1983C6.66237 3.19642 6.1284 3.26912 5.6121 3.41431C3.25697 4.11035 1.66188 6.6685 0.585813 11.4648C-0.571253 16.6261 -0.00172034 19.8848 2.18291 20.6408C2.48236 20.7464 2.79744 20.8008 3.11496 20.8018C4.61155 20.8018 5.81161 19.5552 6.63166 18.5347C7.55821 17.3796 8.64278 16.7936 11.999 16.7936C14.9966 16.7936 16.2372 17.2001 17.3088 18.5347C17.9823 19.3737 18.6189 19.9608 19.2539 20.3303C20.0984 20.8213 20.9425 20.9303 21.762 20.6488C23.0531 20.2083 23.7931 19.0437 23.9622 17.1866C24.0907 15.7625 23.8927 13.8919 23.3561 11.4678ZM9.59883 11.1988H7.99874V12.7989C7.99874 13.011 7.91445 13.2145 7.76441 13.3646C7.61437 13.5146 7.41088 13.5989 7.19869 13.5989C6.98651 13.5989 6.78301 13.5146 6.63298 13.3646C6.48294 13.2145 6.39865 13.011 6.39865 12.7989V11.1988H4.79856C4.58637 11.1988 4.38288 11.1145 4.23284 10.9644C4.0828 10.8144 3.99851 10.6109 3.99851 10.3987C3.99851 10.1865 4.0828 9.98303 4.23284 9.833C4.38288 9.68296 4.58637 9.59867 4.79856 9.59867H6.39865V7.99858C6.39865 7.78639 6.48294 7.5829 6.63298 7.43286C6.78301 7.28282 6.98651 7.19853 7.19869 7.19853C7.41088 7.19853 7.61437 7.28282 7.76441 7.43286C7.91445 7.5829 7.99874 7.78639 7.99874 7.99858V9.59867H9.59883C9.81102 9.59867 10.0145 9.68296 10.1645 9.833C10.3146 9.98303 10.3989 10.1865 10.3989 10.3987C10.3989 10.6109 10.3146 10.8144 10.1645 10.9644C10.0145 11.1145 9.81102 11.1988 9.59883 11.1988ZM13.7991 11.3988C13.6013 11.3988 13.4079 11.3401 13.2435 11.2302C13.079 11.1203 12.9508 10.9642 12.8751 10.7814C12.7994 10.5987 12.7796 10.3976 12.8182 10.2036C12.8568 10.0096 12.9521 9.83143 13.0919 9.69157C13.2318 9.55171 13.41 9.45646 13.604 9.41787C13.798 9.37928 13.999 9.39909 14.1818 9.47478C14.3645 9.55047 14.5207 9.67865 14.6306 9.84311C14.7405 10.0076 14.7991 10.2009 14.7991 10.3987C14.7991 10.6639 14.6938 10.9183 14.5062 11.1059C14.3187 11.2934 14.0643 11.3988 13.7991 11.3988ZM15.9992 13.5989C15.8013 13.5989 15.6079 13.5402 15.4433 13.4302C15.2788 13.3202 15.1506 13.1638 15.075 12.981C14.9994 12.7981 14.9798 12.5969 15.0185 12.4028C15.0573 12.2088 15.1528 12.0306 15.2929 11.8908C15.4331 11.751 15.6115 11.656 15.8056 11.6177C15.9998 11.5794 16.2009 11.5996 16.3836 11.6756C16.5663 11.7517 16.7223 11.8803 16.8319 12.0451C16.9415 12.2098 16.9998 12.4034 16.9993 12.6013C16.9986 12.8661 16.8929 13.1199 16.7055 13.3069C16.518 13.4939 16.264 13.5989 15.9992 13.5989ZM15.9992 9.19865C15.8014 9.19865 15.6081 9.13999 15.4436 9.03011C15.2791 8.92022 15.151 8.76403 15.0753 8.58129C14.9996 8.39856 14.9798 8.19748 15.0184 8.00349C15.0569 7.80949 15.1522 7.6313 15.2921 7.49144C15.4319 7.35158 15.6101 7.25633 15.8041 7.21775C15.9981 7.17916 16.1992 7.19896 16.3819 7.27466C16.5646 7.35035 16.7208 7.47853 16.8307 7.64299C16.9406 7.80744 16.9993 8.0008 16.9993 8.19859C16.9993 8.46382 16.8939 8.71819 16.7063 8.90574C16.5188 9.09328 16.2644 9.19865 15.9992 9.19865ZM18.1993 11.3988C18.0015 11.3988 17.8082 11.3401 17.6437 11.2302C17.4793 11.1203 17.3511 10.9642 17.2754 10.7814C17.1997 10.5987 17.1799 10.3976 17.2185 10.2036C17.2571 10.0096 17.3523 9.83143 17.4922 9.69157C17.632 9.55171 17.8102 9.45646 18.0042 9.41787C18.1982 9.37928 18.3993 9.39909 18.582 9.47478C18.7648 9.55047 18.921 9.67865 19.0308 9.84311C19.1407 10.0076 19.1994 10.2009 19.1994 10.3987C19.1994 10.6639 19.094 10.9183 18.9065 11.1059C18.7189 11.2934 18.4646 11.3988 18.1993 11.3988Z" fill="#FF6E49"/>
</svg>