<svg width="24" height="24" viewBox="0 0 24 24" fill="none" xmlns="http://www.w3.org/2000/svg">
<path d="M23.3561 11.4558C22.2956 6.55301 20.6995 3.93623 18.3318 3.22145C17.8342 3.07216 17.3179 2.99758 16.7992 3.00006C16.1137 3.00006 15.5167 3.17083 14.8851 3.35183C14.1241 3.57015 13.2595 3.81812 11.999 3.81812C10.7384 3.81812 9.87335 3.57066 9.1108 3.35234C8.47877 3.17083 7.88223 3.00006 7.19869 3.00006C6.66237 2.99813 6.1284 3.07247 5.6121 3.22094C3.25697 3.93265 1.66188 6.54841 0.585813 11.4527C-0.571253 16.7302 -0.00172034 20.0623 2.18291 20.8354C2.48236 20.9433 2.79744 20.999 3.11496 21C4.61155 21 5.81161 19.7254 6.63166 18.6818C7.55821 17.5007 8.64278 16.9015 11.999 16.9015C14.9966 16.9015 16.2372 17.3172 17.3088 18.6818C17.9823 19.5398 18.6189 20.14 19.2539 20.5179C20.0984 21.0199 20.9425 21.1314 21.762 20.8435C23.0531 20.3931 23.7931 19.2023 23.9622 17.3034C24.0907 15.8472 23.8927 13.9345 23.3561 11.4558ZM9.59883 11.1807H7.99874V12.8168C7.99874 13.0338 7.91445 13.2419 7.76441 13.3953C7.61437 13.5487 7.41088 13.6349 7.19869 13.6349C6.98651 13.6349 6.78301 13.5487 6.63298 13.3953C6.48294 13.2419 6.39865 13.0338 6.39865 12.8168V11.1807H4.79856C4.58637 11.1807 4.38288 11.0945 4.23284 10.9411C4.0828 10.7877 3.99851 10.5796 3.99851 10.3626C3.99851 10.1457 4.0828 9.93759 4.23284 9.78417C4.38288 9.63075 4.58637 9.54456 4.79856 9.54456H6.39865V7.90844C6.39865 7.69147 6.48294 7.4834 6.63298 7.32998C6.78301 7.17656 6.98651 7.09037 7.19869 7.09037C7.41088 7.09037 7.61437 7.17656 7.76441 7.32998C7.91445 7.4834 7.99874 7.69147 7.99874 7.90844V9.54456H9.59883C9.81102 9.54456 10.0145 9.63075 10.1645 9.78417C10.3146 9.93759 10.3989 10.1457 10.3989 10.3626C10.3989 10.5796 10.3146 10.7877 10.1645 10.9411C10.0145 11.0945 9.81102 11.1807 9.59883 11.1807ZM13.7991 11.3852C13.6013 11.3852 13.4079 11.3252 13.2435 11.2129C13.079 11.1005 12.9508 10.9408 12.8751 10.754C12.7994 10.5671 12.7796 10.3615 12.8182 10.1631C12.8568 9.96477 12.9521 9.78256 13.0919 9.63955C13.2318 9.49654 13.41 9.39915 13.604 9.3597C13.798 9.32024 13.999 9.34049 14.1818 9.41789C14.3645 9.49528 14.5207 9.62635 14.6306 9.79451C14.7405 9.96267 14.7991 10.1604 14.7991 10.3626C14.7991 10.6338 14.6938 10.8939 14.5062 11.0857C14.3187 11.2775 14.0643 11.3852 13.7991 11.3852ZM15.9992 13.6349C15.8013 13.6349 15.6079 13.5748 15.4433 13.4624C15.2788 13.3499 15.1506 13.19 15.075 13.003C14.9994 12.816 14.9798 12.6103 15.0185 12.4119C15.0573 12.2134 15.1528 12.0312 15.2929 11.8883C15.4331 11.7454 15.6115 11.6482 15.8056 11.6091C15.9998 11.5699 16.2009 11.5905 16.3836 11.6683C16.5663 11.7461 16.7223 11.8775 16.8319 12.046C16.9415 12.2145 16.9998 12.4125 16.9993 12.6149C16.9986 12.8856 16.8929 13.1451 16.7055 13.3363C16.518 13.5275 16.264 13.6349 15.9992 13.6349ZM15.9992 9.13553C15.8014 9.13553 15.6081 9.07556 15.4436 8.9632C15.2791 8.85083 15.151 8.69113 15.0753 8.50428C14.9996 8.31743 14.9798 8.11182 15.0184 7.91346C15.0569 7.7151 15.1522 7.53289 15.2921 7.38988C15.4319 7.24687 15.6101 7.14948 15.8041 7.11002C15.9981 7.07057 16.1992 7.09082 16.3819 7.16821C16.5646 7.24561 16.7208 7.37668 16.8307 7.54484C16.9406 7.713 16.9993 7.91071 16.9993 8.11295C16.9993 8.38416 16.8939 8.64425 16.7063 8.83603C16.5188 9.0278 16.2644 9.13553 15.9992 9.13553ZM18.1993 11.3852C18.0015 11.3852 17.8082 11.3252 17.6437 11.2129C17.4793 11.1005 17.3511 10.9408 17.2754 10.754C17.1997 10.5671 17.1799 10.3615 17.2185 10.1631C17.2571 9.96477 17.3523 9.78256 17.4922 9.63955C17.632 9.49654 17.8102 9.39915 18.0042 9.3597C18.1982 9.32024 18.3993 9.34049 18.582 9.41789C18.7648 9.49528 18.921 9.62635 19.0308 9.79451C19.1407 9.96267 19.1994 10.1604 19.1994 10.3626C19.1994 10.6338 19.094 10.8939 18.9065 11.0857C18.7189 11.2775 18.4646 11.3852 18.1993 11.3852Z" fill="#AFA9A9"/>
</svg>
