<svg width="24" height="24" viewBox="0 0 24 24" fill="none" xmlns="http://www.w3.org/2000/svg">
<path d="M4.06175 2.99982C5.86728 1.40292 8.11339 0.389138 10.5053 0.0914988C10.5983 0.736458 10.7153 1.45491 10.8653 2.20337C11.1353 3.55328 11.5103 5.02319 12.0293 6.3686C12.4432 7.44704 12.9637 8.48197 13.6221 9.31592L11.9993 10.9388L4.06175 2.99982ZM2.99982 4.06325C1.40237 5.8686 0.388063 8.11472 0.0899987 10.5068C0.734958 10.5998 1.45191 10.7168 2.20037 10.8668C3.55028 11.1368 5.02019 11.5118 6.3656 12.0307C7.44404 12.4447 8.48047 12.9652 9.31292 13.6236L10.9388 11.9993L2.99982 4.06325ZM8.24349 14.6946C7.59853 14.2146 6.77058 13.7931 5.82864 13.4302C4.58822 12.9532 3.2083 12.5992 1.90638 12.3382C1.27388 12.2114 0.63821 12.1008 4.41366e-06 12.0068C-0.00250439 14.9278 1.0646 17.7487 2.99982 19.9368L8.24349 14.6946ZM4.05875 20.9987L9.30392 15.755C9.78389 16.4 10.2039 17.2279 10.5668 18.1699C11.0438 19.4088 11.3978 20.7902 11.6588 22.0906C11.7938 22.7626 11.9018 23.4105 11.9888 24C9.06821 24.0021 6.24791 22.9351 4.06025 21.0002M10.3749 14.6856L11.9993 13.0612L19.9368 20.9987C18.1314 22.5961 15.8853 23.6104 13.4932 23.9085C13.3987 23.2635 13.2802 22.5451 13.1317 21.7966C12.8617 20.4467 12.4867 18.9768 11.9693 17.6314C11.5538 16.5545 11.0348 15.5195 10.3749 14.6856ZM20.9987 19.9383C22.5961 18.1329 23.6104 15.8868 23.9085 13.4947C23.2635 13.4017 22.5451 13.2847 21.7966 13.1347C20.4467 12.8647 18.9768 12.4897 17.6314 11.9723C16.5545 11.5568 15.518 11.0378 14.6841 10.3779L13.0597 11.9993L20.9987 19.9383ZM15.7535 9.30842C16.3985 9.78839 17.2279 10.2084 18.1684 10.5713C19.4088 11.0483 20.7902 11.4023 22.0906 11.6633C22.7626 11.7983 23.4105 11.9063 24 11.9933C24.0025 9.07219 22.9354 6.2513 21.0002 4.06325L15.7535 9.30842ZM19.9368 2.99982C17.7487 1.0646 14.9278 -0.00250439 12.0068 4.41366e-06C12.0937 0.589467 12.2017 1.23743 12.3367 1.90938C12.5977 3.2113 12.9517 4.59122 13.4287 5.83014C13.7916 6.77208 14.2116 7.60003 14.6916 8.24499L19.9368 2.99982Z" fill="#F45F3A"/>
</svg>
