<svg width="16" height="24" viewBox="0 0 16 24" fill="none" xmlns="http://www.w3.org/2000/svg">
<path d="M16 7.928C16 5.82536 15.1571 3.80885 13.6569 2.32206C12.1566 0.835269 10.1217 0 8 0C5.87827 0 3.84344 0.835269 2.34315 2.32206C0.842855 3.80885 0 5.82536 0 7.928C0 11.6271 2.4918 15.976 5.89155 17.3056C5.92707 17.3168 5.95936 17.3362 5.9857 17.3623C6.01204 17.3884 6.03165 17.4204 6.04288 17.4556C6.05786 17.4904 6.06559 17.5278 6.06559 17.5656C6.06559 17.6034 6.05786 17.6408 6.04288 17.6755L5.6797 18.2154C5.56163 18.3858 5.49348 18.5853 5.4828 18.7918C5.47212 18.9982 5.51931 19.2036 5.61917 19.3851C5.71591 19.5677 5.86084 19.7209 6.0385 19.8283C6.21616 19.9357 6.4199 19.9933 6.628 19.995H6.75914C6.82603 19.995 6.89018 20.0213 6.93748 20.0682C6.98478 20.115 7.01135 20.1786 7.01135 20.2449V21.4946C6.98429 21.8279 7.03027 22.1631 7.14615 22.4771C7.26203 22.7912 7.44505 23.0767 7.68269 23.3141C7.92032 23.5515 8.20694 23.7351 8.52291 23.8525C8.83887 23.9698 9.1767 24.0181 9.51324 23.9939C9.7808 23.9939 10.0374 23.8886 10.2266 23.7011C10.4158 23.5136 10.5221 23.2593 10.5221 22.9942C10.5221 22.7291 10.4158 22.4748 10.2266 22.2873C10.0374 22.0998 9.7808 21.9945 9.51324 21.9945C9.05927 21.9945 9.00883 21.9445 9.00883 21.4946V20.2449C9.00883 20.1786 9.0354 20.115 9.0827 20.0682C9.12999 20.0213 9.19414 19.995 9.26103 19.995H9.39218C9.60028 19.9933 9.80402 19.9357 9.98168 19.8283C10.1593 19.7209 10.3043 19.5677 10.401 19.3851C10.5009 19.2036 10.5481 18.9982 10.5374 18.7918C10.5267 18.5853 10.4585 18.3858 10.3405 18.2154L10.0177 17.6755C10.0027 17.6408 9.99494 17.6034 9.99494 17.5656C9.99494 17.5278 10.0027 17.4904 10.0177 17.4556C10.0289 17.4204 10.0485 17.3884 10.0748 17.3623C10.1012 17.3362 10.1335 17.3168 10.169 17.3056C13.5082 15.996 16 11.6271 16 7.928ZM8 3.74905C7.16944 3.74091 6.35281 3.96076 5.64057 4.38426C4.92834 4.80775 4.34829 5.41836 3.96469 6.14845C3.90296 6.27123 3.80801 6.37458 3.69043 6.44696C3.57285 6.51935 3.43728 6.55791 3.29886 6.55835C3.17867 6.55777 3.06061 6.5268 2.95586 6.46837C2.7826 6.37489 2.65236 6.21882 2.59224 6.03262C2.53211 5.84642 2.54673 5.64442 2.63304 5.46862C3.14548 4.49733 3.91666 3.68374 4.86284 3.11621C5.80901 2.54868 6.89401 2.2489 8 2.24943C8.20067 2.24943 8.39312 2.32843 8.53501 2.46905C8.6769 2.60966 8.75662 2.80038 8.75662 2.99924C8.75662 3.19811 8.6769 3.38882 8.53501 3.52944C8.39312 3.67006 8.20067 3.74905 8 3.74905Z" fill="#F45F3A"/>
</svg>
