<svg width="21" height="24" viewBox="0 0 21 24" fill="none" xmlns="http://www.w3.org/2000/svg">
<path d="M20.5039 0.28929C20.6586 0.414149 20.7836 0.572888 20.8695 0.753663C20.9554 0.934439 21 1.13259 21 1.33333V16.8899C21 16.9432 20.9969 16.997 20.9908 17.0512C20.9969 17.1445 21 17.2388 21 17.3339C20.9996 18.1829 20.7332 19.0098 20.2395 19.6948C19.7458 20.3799 19.0503 20.8876 18.2537 21.1445C17.4571 21.4013 16.6008 21.394 15.8085 21.1236C15.0163 20.8532 14.3293 20.3338 13.8469 19.6404C13.3646 18.947 13.1119 18.1157 13.1255 17.2668C13.1391 16.4179 13.4182 15.5953 13.9225 14.9183C14.4267 14.2412 15.13 13.7446 15.9304 13.5005C16.7309 13.2564 17.587 13.2774 18.375 13.5604V8.3469L7.875 10.8363V20.0046C7.874 20.8536 7.60718 21.6802 7.11314 22.3648C6.61909 23.0495 5.92345 23.5567 5.12684 23.8132C4.33024 24.0696 3.47398 24.0619 2.68197 23.7912C1.88995 23.5205 1.20324 23.0008 0.721193 22.3074C0.239144 21.614 -0.0132469 20.7827 0.000535907 19.9339C0.0143188 19.0851 0.29356 18.2627 0.797861 17.5858C1.30216 16.9089 2.00537 16.4125 2.80574 16.1685C3.60612 15.9245 4.46215 15.9455 5.25 16.2285V4.4441C5.24997 4.14306 5.35021 3.85087 5.53442 3.61506C5.71863 3.37926 5.97597 3.21372 6.26456 3.14539L19.3896 0.0346146C19.5803 -0.0104228 19.7786 -0.0115251 19.9698 0.0313888C20.161 0.0743027 20.3404 0.160145 20.4947 0.282623L20.5039 0.28929Z" fill="#F45F3A"/>
</svg>
