<svg width="22" height="24" viewBox="0 0 22 24" fill="none" xmlns="http://www.w3.org/2000/svg">
<path d="M4.88889 24C4.54259 24 4.25252 23.8848 4.01867 23.6544C3.78481 23.424 3.66748 23.1392 3.66667 22.8V13.02C2.56667 12.74 1.68056 12.17 1.00833 11.31C0.336111 10.45 0 9.48 0 8.4V1.2C0 0.860004 0.117333 0.575204 0.352 0.345604C0.586667 0.116004 0.876741 0.000804138 1.22222 4.13792e-06C1.5677 -0.000795862 1.85818 0.114404 2.09367 0.345604C2.32915 0.576804 2.44607 0.861604 2.44444 1.2V7.2H3.66667V1.2C3.66667 0.860004 3.784 0.575204 4.01867 0.345604C4.25333 0.116004 4.54341 0.000804138 4.88889 4.13792e-06C5.23437 -0.000795862 5.52485 0.114404 5.76033 0.345604C5.99581 0.576804 6.11274 0.861604 6.11111 1.2V7.2H7.33333V1.2C7.33333 0.860004 7.45067 0.575204 7.68533 0.345604C7.92 0.116004 8.21007 0.000804138 8.55556 4.13792e-06C8.90104 -0.000795862 9.19152 0.114404 9.427 0.345604C9.66248 0.576804 9.77941 0.861604 9.77778 1.2V8.4C9.77778 9.48 9.44167 10.45 8.76944 11.31C8.09722 12.17 7.21111 12.74 6.11111 13.02V22.8C6.11111 23.14 5.99378 23.4252 5.75911 23.6556C5.52444 23.886 5.23437 24.0008 4.88889 24ZM17.1111 24C16.7648 24 16.4747 23.8848 16.2409 23.6544C16.007 23.424 15.8897 23.1392 15.8889 22.8V12.57C14.7889 12.21 13.9028 11.4552 13.2306 10.3056C12.5583 9.156 12.2222 7.8508 12.2222 6.39C12.2222 4.61 12.7009 3.1 13.6583 1.86C14.6157 0.620004 15.7667 4.13792e-06 17.1111 4.13792e-06C18.4556 4.13792e-06 19.6065 0.624804 20.5639 1.8744C21.5213 3.124 22 4.6392 22 6.42C22 7.88 21.6639 9.18 20.9917 10.32C20.3194 11.46 19.4333 12.21 18.3333 12.57V22.8C18.3333 23.14 18.216 23.4252 17.9813 23.6556C17.7467 23.886 17.4566 24.0008 17.1111 24Z" fill="#F45F3A"/>
</svg>
