<svg width="24" height="24" viewBox="0 0 24 24" fill="none" xmlns="http://www.w3.org/2000/svg">
<path fill-rule="evenodd" clip-rule="evenodd" d="M10.9453 2.11072C9.58991 2.11083 8.25419 2.43508 7.04958 3.05641C5.84497 3.67774 4.80641 4.57813 4.02056 5.68247C3.2347 6.78681 2.72433 8.06306 2.53203 9.40476C2.33973 10.7465 2.47107 12.1147 2.9151 13.3953C3.35913 14.6759 4.10297 15.8318 5.08456 16.7664C6.06615 17.7011 7.25703 18.3875 8.55784 18.7683C9.85864 19.1491 11.2317 19.2134 12.5623 18.9556C13.893 18.6979 15.1428 18.1257 16.2073 17.2867L19.8593 20.9387C20.0479 21.1209 20.3005 21.2217 20.5627 21.2194C20.8249 21.2171 21.0757 21.1119 21.2611 20.9265C21.4465 20.7411 21.5517 20.4903 21.554 20.2281C21.5563 19.9659 21.4555 19.7133 21.2733 19.5247L17.6213 15.8727C18.6093 14.6193 19.2245 13.1131 19.3964 11.5264C19.5684 9.93977 19.2901 8.33674 18.5935 6.90081C17.897 5.46488 16.8102 4.25407 15.4576 3.40695C14.105 2.55982 12.5413 2.11061 10.9453 2.11072ZM4.44532 10.6107C4.44532 8.88681 5.13014 7.23351 6.34913 6.01452C7.56811 4.79554 9.22141 4.11072 10.9453 4.11072C12.6692 4.11072 14.3225 4.79554 15.5415 6.01452C16.7605 7.23351 17.4453 8.88681 17.4453 10.6107C17.4453 12.3346 16.7605 13.9879 15.5415 15.2069C14.3225 16.4259 12.6692 17.1107 10.9453 17.1107C9.22141 17.1107 7.56811 16.4259 6.34913 15.2069C5.13014 13.9879 4.44532 12.3346 4.44532 10.6107Z" fill="#AFA9A9"/>
<path fill-rule="evenodd" clip-rule="evenodd" d="M12.099 21.3333L12.088 21.3353L12.017 21.3703L11.997 21.3743L11.983 21.3703L11.912 21.3353C11.9014 21.3319 11.8934 21.3336 11.888 21.3403L11.884 21.3503L11.867 21.7783L11.872 21.7983L11.882 21.8113L11.986 21.8853L12.001 21.8893L12.013 21.8853L12.117 21.8113L12.129 21.7953L12.133 21.7783L12.116 21.3513C12.1134 21.3406 12.1077 21.3346 12.099 21.3333ZM12.364 21.2203L12.351 21.2223L12.166 21.3153L12.156 21.3253L12.153 21.3363L12.171 21.7663L12.176 21.7783L12.184 21.7853L12.385 21.8783C12.3977 21.8816 12.4074 21.8789 12.414 21.8703L12.418 21.8563L12.384 21.2423C12.3807 21.2303 12.374 21.2229 12.364 21.2203ZM11.649 21.2223C11.6446 21.2196 11.6394 21.2187 11.6343 21.2198C11.6293 21.221 11.6249 21.224 11.622 21.2283L11.616 21.2423L11.582 21.8563C11.5827 21.8683 11.5884 21.8763 11.599 21.8803L11.614 21.8783L11.815 21.7853L11.825 21.7773L11.829 21.7663L11.846 21.3363L11.843 21.3243L11.833 21.3143L11.649 21.2223Z" fill="#F45F3A"/>
</svg>
