<svg width="25" height="24" viewBox="0 0 25 24" fill="none" xmlns="http://www.w3.org/2000/svg">
<path d="M4.5 18.75V9.75C4.5 9.43333 4.571 9.13333 4.713 8.85C4.855 8.56667 5.05067 8.33333 5.3 8.15L11.3 3.65C11.65 3.38333 12.05 3.25 12.5 3.25C12.95 3.25 13.35 3.38333 13.7 3.65L19.7 8.15C19.95 8.33333 20.146 8.56667 20.288 8.85C20.43 9.13333 20.5007 9.43333 20.5 9.75V18.75C20.5 19.3 20.304 19.771 19.912 20.163C19.52 20.555 19.0493 20.7507 18.5 20.75H15.5C15.2167 20.75 14.9793 20.654 14.788 20.462C14.5967 20.27 14.5007 20.0327 14.5 19.75V14.75C14.5 14.4667 14.404 14.2293 14.212 14.038C14.02 13.8467 13.7827 13.7507 13.5 13.75H11.5C11.2167 13.75 10.9793 13.846 10.788 14.038C10.5967 14.23 10.5007 14.4673 10.5 14.75V19.75C10.5 20.0333 10.404 20.271 10.212 20.463C10.02 20.655 9.78267 20.7507 9.5 20.75H6.5C5.95 20.75 5.47933 20.5543 5.088 20.163C4.69667 19.7717 4.50067 19.3007 4.5 18.75Z" fill="#AFA9A9"/>
</svg>
