<svg width="16" height="17" viewBox="0 0 16 17" fill="none" xmlns="http://www.w3.org/2000/svg">
<path d="M14.3262 14.0947C14.5142 14.0949 14.667 14.2474 14.667 14.4355C14.6669 14.6235 14.5142 14.7762 14.3262 14.7764H8.34082C8.15271 14.7764 8.00014 14.6236 8 14.4355C8 14.2474 8.15262 14.0947 8.34082 14.0947H14.3262ZM12 7.56152L5.80469 13.8945C5.71943 13.9817 5.61232 14.0442 5.49512 14.0742L2 14.7754L2.68652 11.2021C2.71592 11.0826 2.77704 10.9739 2.8623 10.8867L9.05762 4.55273L12 7.56152ZM12 2.10938C12.3536 2.10938 12.6923 2.25326 12.9424 2.50879L14 3.58887C14.2499 3.84441 14.3906 4.19141 14.3906 4.55273C14.3906 4.91414 14.2499 5.261 14 5.5166L12.9424 6.59766L10 3.58887L11.0576 2.50879C11.3077 2.25326 11.6464 2.10938 12 2.10938Z" fill="#AFA9A9"/>
</svg>
